<?xml version="1.0" standalone="no"?>
<!DOCTYPE svg PUBLIC "-//W3C//DTD SVG 20010904//EN"
 "http://www.w3.org/TR/2001/REC-SVG-20010904/DTD/svg10.dtd">
<svg version="1.0" xmlns="http://www.w3.org/2000/svg"
 width="1480.000000pt" height="1480.000000pt" viewBox="0 0 1480.000000 1480.000000"
 preserveAspectRatio="xMidYMid meet">
<metadata>
Created by potrace 1.11, written by Peter Selinger 2001-2013
</metadata>
<g transform="translate(0.000000,1480.000000) scale(0.100000,-0.100000)"
fill="#000000" stroke="none">
<path d="M11893 14685 c-32 -22 -46 -94 -33 -168 15 -81 48 -142 109 -200 90
-87 169 -229 207 -372 30 -112 26 -328 -9 -467 -76 -308 -245 -626 -448 -843
-201 -214 -506 -389 -861 -493 -178 -52 -159 -56 -203 40 -135 295 -190 500
-201 752 -8 172 -23 228 -79 284 -49 48 -68 50 -98 10 -40 -54 -32 -286 19
-537 27 -138 110 -397 172 -539 46 -107 59 -92 -103 -116 -364 -55 -673 -69
-1420 -68 -1400 3 -2075 -36 -2763 -163 -859 -157 -1652 -503 -2352 -1024
-1135 -845 -1977 -2164 -2244 -3516 -264 -1336 -10 -2790 704 -4030 948 -1647
2562 -2768 4390 -3049 314 -48 488 -60 860 -60 372 0 549 12 860 60 1034 159
1995 595 2760 1255 638 550 1199 1334 1621 2266 349 770 529 1579 529 2376 0
1171 -395 2380 -1237 3784 -119 199 -360 578 -690 1088 -122 187 -282 441
-357 564 l-136 225 102 32 c481 148 807 385 1061 769 154 234 283 570 323 840
24 161 15 449 -19 600 -56 246 -153 443 -294 596 -53 57 -127 119 -142 119 -4
0 -16 -7 -28 -15z m-1174 -3047 c127 -234 294 -505 614 -994 555 -851 828
-1306 1065 -1780 393 -785 601 -1443 689 -2181 25 -208 24 -736 0 -948 -64
-541 -187 -1017 -397 -1534 -445 -1096 -1149 -2043 -1975 -2656 -255 -190
-494 -335 -800 -485 -596 -293 -1205 -463 -1920 -537 -240 -24 -819 -24 -1065
0 -564 57 -1067 176 -1565 372 -1208 475 -2250 1363 -2936 2505 -404 673 -637
1366 -726 2160 -25 222 -25 804 0 1015 76 638 247 1199 548 1795 294 584 662
1094 1124 1556 895 896 1929 1387 3305 1568 250 33 443 52 650 65 91 6 190 13
220 15 30 3 525 9 1100 15 1050 10 1310 17 1605 47 122 12 377 50 425 63 3 0
21 -27 39 -61z"/>
<path d="M8650 11132 c-183 -273 -514 -601 -889 -882 -232 -174 -262 -186
-372 -154 -74 22 -179 14 -299 -25 -154 -49 -456 -127 -585 -150 -388 -72
-403 -78 -247 -99 123 -17 377 15 662 83 80 19 168 35 195 35 62 0 154 -23
137 -34 -20 -12 -69 -117 -86 -182 -8 -33 -29 -147 -46 -254 -50 -324 -88
-437 -180 -534 -95 -100 -189 -111 -356 -41 -128 53 -224 87 -241 83 -9 -2 5
-17 35 -40 75 -55 149 -94 237 -123 106 -36 218 -33 286 7 153 90 225 255 284
654 51 343 84 403 281 509 49 27 118 67 154 88 l65 40 80 -12 c44 -6 127 -13
185 -16 234 -13 389 -42 504 -94 109 -49 170 -120 205 -239 13 -43 22 -57 36
-57 14 0 22 10 28 38 7 30 16 41 46 53 205 86 330 74 515 -49 134 -90 306
-268 591 -612 349 -421 495 -560 628 -600 67 -20 94 -19 99 3 4 14 -19 36 -96
93 -135 99 -290 255 -475 479 -281 340 -345 414 -456 525 -130 131 -221 201
-330 255 -186 92 -350 92 -480 -2 l-40 -29 -13 41 c-22 65 -106 143 -204 190
-143 69 -431 117 -641 109 -47 -2 -83 -1 -79 2 4 3 36 28 72 55 354 267 695
616 874 897 l37 57 -38 0 c-36 -1 -41 -5 -83 -68z"/>
<path d="M6907 9764 c-23 -25 -72 -66 -109 -90 -37 -25 -70 -49 -73 -54 -3 -4
-42 -11 -88 -15 -143 -11 -292 31 -402 114 -27 21 -61 43 -74 50 -24 13 -24
13 -18 -25 4 -27 1 -45 -8 -58 -21 -28 -18 -113 4 -161 29 -62 98 -124 121
-110 15 9 97 13 110 5 16 -10 -90 -324 -141 -420 -25 -46 -73 -113 -111 -155
-122 -132 -229 -187 -495 -255 -213 -55 -305 -86 -387 -128 -78 -41 -181 -137
-237 -222 -20 -30 -75 -113 -121 -185 -150 -230 -249 -303 -441 -324 -227 -26
-467 56 -862 291 -182 109 -799 448 -814 448 -15 0 -34 -41 -24 -50 4 -5 150
-86 323 -180 173 -95 385 -214 471 -265 383 -229 593 -308 819 -309 272 -2
417 91 605 389 210 334 254 364 688 474 244 63 364 121 484 234 118 111 192
246 267 490 25 81 46 149 46 151 0 2 14 6 30 10 18 3 30 12 30 21 0 13 8 15
44 10 26 -4 46 -3 50 3 3 6 14 8 24 5 10 -2 24 3 31 11 8 9 23 16 36 16 26 0
50 40 42 70 -4 14 0 23 11 26 112 34 265 169 246 218 -10 27 -33 18 -77 -30z"/>
<path d="M8315 8711 c-3 -5 4 -35 16 -66 40 -106 192 -238 364 -315 172 -77
405 -132 570 -134 142 -1 187 8 183 36 -4 27 -47 39 -243 68 -226 34 -365 75
-509 148 -107 55 -164 96 -266 196 -73 72 -101 88 -115 67z"/>
<path d="M7464 8513 c-28 -43 -73 -116 -100 -163 -158 -274 -400 -513 -604
-596 -56 -23 -248 -74 -278 -74 -7 0 18 27 55 59 175 152 372 380 428 496 45
92 52 123 30 131 -23 9 -57 -26 -190 -191 -135 -167 -346 -376 -470 -464 -177
-124 -349 -192 -486 -192 -37 0 -110 10 -163 21 -53 12 -101 18 -106 15 -21
-13 -8 -36 38 -70 70 -51 131 -69 237 -69 155 1 316 59 493 178 45 30 82 51
82 46 0 -11 51 -27 110 -35 54 -8 164 14 250 49 191 76 411 266 557 478 l46
68 25 -38 c126 -190 462 -342 757 -342 85 0 210 29 217 51 2 7 27 4 73 -10
193 -58 364 -41 458 47 15 14 27 31 27 37 0 6 14 16 31 22 28 11 31 10 40 -15
103 -264 138 -381 164 -549 43 -277 58 -365 81 -458 13 -55 26 -136 29 -180 9
-118 13 -140 36 -169 15 -19 24 -23 37 -16 9 4 24 11 34 14 21 6 54 96 84 231
28 128 46 188 81 268 25 55 27 57 65 57 51 0 100 -21 126 -55 18 -23 22 -41
22 -104 -1 -42 -5 -107 -11 -146 -5 -38 -14 -200 -19 -360 -9 -316 -16 -362
-73 -468 -35 -66 -59 -89 -123 -113 -42 -16 -45 -16 -64 1 -11 10 -20 27 -20
37 0 22 -41 41 -52 24 -15 -22 -8 -89 14 -127 21 -37 21 -43 10 -128 -7 -49
-24 -124 -39 -167 -39 -114 -153 -253 -387 -474 -206 -194 -346 -345 -447
-481 -82 -113 -234 -359 -312 -507 -33 -62 -68 -117 -80 -124 -12 -6 -55 -42
-95 -79 -40 -37 -98 -80 -128 -95 -51 -25 -61 -26 -137 -20 -45 4 -94 7 -109
6 l-26 0 28 72 c30 81 65 222 75 311 4 37 12 60 21 64 20 8 60 80 72 133 6 25
16 94 22 153 15 150 25 199 45 213 15 11 14 14 -12 27 -15 8 -52 20 -81 26
-57 12 -128 45 -179 84 -18 13 -120 110 -227 215 l-195 191 14 28 c8 15 15 32
15 36 0 49 81 124 119 112 38 -12 33 -65 -6 -65 -25 0 -9 -34 21 -45 25 -8 31
-6 52 18 53 62 5 157 -78 157 -35 0 -102 -38 -127 -71 -12 -17 -30 -53 -39
-80 l-17 -49 -230 218 c-245 232 -480 475 -480 496 0 16 50 76 64 76 14 0 71
50 71 62 0 13 47 58 60 58 19 0 60 24 60 35 0 7 -12 24 -26 39 -33 32 -73 34
-152 5 -126 -47 -159 -57 -207 -63 l-50 -6 -50 67 c-96 130 -244 357 -238 366
10 16 189 -1 348 -33 83 -16 171 -30 198 -30 45 0 47 1 47 28 0 75 -139 250
-215 271 -68 19 -191 12 -335 -20 -74 -16 -141 -30 -149 -31 -35 -7 -326 562
-587 1146 -98 220 -131 278 -164 296 -19 10 -20 10 -6 -22 8 -18 25 -69 39
-113 50 -159 348 -793 529 -1125 120 -221 196 -348 313 -525 258 -391 453
-611 993 -1123 532 -504 582 -562 641 -747 52 -160 64 -327 36 -505 -42 -278
-133 -451 -349 -665 -164 -164 -309 -262 -462 -315 -62 -22 -241 -53 -255 -45
-4 3 -11 20 -14 38 -4 17 -48 120 -97 227 -106 228 -121 270 -193 532 -104
380 -139 431 -475 688 -74 57 -178 143 -230 190 -109 99 -169 142 -243 175
-106 47 -208 39 -318 -25 -112 -66 -162 -137 -162 -230 0 -64 17 -107 65 -171
27 -34 37 -60 42 -100 11 -90 27 -151 59 -221 30 -68 34 -72 59 -63 13 5 13 8
-8 272 l-7 92 31 30 c31 32 46 35 147 32 73 -3 138 -23 274 -83 107 -49 135
-58 142 -47 15 24 11 31 -45 85 -101 98 -234 147 -401 148 -110 1 -162 -17
-203 -69 -11 -14 -22 -25 -25 -25 -8 0 -27 87 -27 124 0 76 139 176 244 176
88 0 159 -43 328 -197 42 -38 141 -119 220 -179 188 -142 295 -250 337 -337
17 -36 52 -139 77 -229 25 -90 61 -215 81 -278 54 -176 216 -515 287 -604 28
-33 68 -30 59 5 -5 17 -3 18 21 9 39 -15 133 -12 201 5 86 22 249 105 346 176
121 89 304 276 374 384 32 50 60 92 61 94 2 2 17 -8 34 -22 36 -31 81 -42 171
-41 69 1 145 28 211 76 21 14 30 17 26 7 -25 -65 -73 -230 -88 -304 -72 -346
-49 -644 95 -1210 35 -137 61 -252 59 -254 -6 -6 -227 130 -353 217 -185 128
-646 469 -805 595 -139 111 -259 197 -276 197 -19 0 -18 -36 2 -69 60 -98 168
-188 678 -562 370 -272 473 -340 830 -549 432 -252 607 -376 774 -550 83 -86
90 -91 120 -86 18 4 41 12 51 19 16 13 13 19 -42 83 -102 118 -276 265 -463
391 -25 16 -44 34 -43 40 1 5 13 72 28 149 41 226 75 316 170 459 198 297 559
494 1000 546 132 16 380 6 509 -20 165 -34 364 -107 397 -147 11 -14 -21 -176
-107 -533 -24 -101 -44 -188 -44 -193 0 -10 35 14 93 64 37 33 38 33 92 273
30 132 55 252 55 268 0 38 15 34 45 -12 39 -58 63 -129 71 -210 l7 -73 50 50
50 50 -16 66 c-26 107 -64 174 -147 257 -86 86 -171 138 -299 181 -587 198
-1273 70 -1674 -311 -215 -204 -348 -484 -349 -733 -1 -54 -2 -98 -2 -98 -1 0
-65 37 -141 83 l-140 84 -7 50 c-4 27 -32 146 -62 264 -87 336 -117 499 -136
725 -34 401 84 802 378 1289 197 327 260 404 603 745 201 200 309 316 394 424
192 244 329 376 390 376 41 0 72 -39 80 -101 22 -177 98 -307 190 -325 19 -3
59 -3 89 0 59 8 180 -10 194 -27 5 -7 17 -43 26 -82 39 -158 99 -238 234 -308
73 -38 177 -71 192 -62 31 19 -8 60 -143 148 -127 84 -151 121 -197 306 -14
54 -53 95 -106 111 -21 7 -97 14 -167 17 l-128 5 -29 51 c-18 32 -35 84 -45
141 -18 98 -36 150 -62 178 -15 17 -12 18 70 18 105 0 130 9 148 52 16 38 16
53 3 355 -9 203 -12 225 -31 251 l-21 29 41 -14 c29 -10 70 -14 133 -11 80 3
100 8 160 38 61 31 71 40 84 77 9 28 20 42 29 40 27 -4 13 72 -23 133 -54 89
-92 170 -127 270 -33 95 -76 159 -97 146 -6 -4 -16 -25 -22 -46 -9 -35 -7 -51
19 -130 43 -128 119 -277 167 -327 l41 -43 -28 0 c-14 0 -53 -12 -85 -27 -53
-25 -71 -28 -169 -29 -60 0 -118 -4 -127 -8 -21 -9 -23 -27 -6 -44 8 -8 9 -12
1 -12 -6 0 -21 -20 -33 -44 -21 -43 -21 -48 -10 -273 6 -125 12 -239 13 -253
2 -24 0 -25 -75 -28 -69 -3 -79 -6 -97 -28 -11 -14 -17 -32 -14 -41 5 -12 1
-14 -18 -8 -47 16 -108 7 -157 -20 -26 -15 -94 -75 -151 -133 -70 -71 -102
-97 -98 -81 4 13 10 54 13 92 6 53 10 67 24 67 81 0 202 94 249 193 55 117 62
161 71 452 4 149 16 338 25 420 9 83 14 169 11 193 -14 103 -85 177 -191 200
l-35 7 30 45 c26 39 28 47 15 59 -13 13 -18 13 -41 0 -60 -31 -132 -109 -172
-186 -40 -78 -92 -227 -92 -264 0 -45 -17 -13 -34 67 -12 55 -28 96 -43 115
-21 25 -23 34 -17 91 15 153 -62 513 -150 700 -15 31 -47 79 -71 106 -44 48
-45 49 -93 44 -61 -5 -194 21 -287 57 -38 15 -134 66 -212 113 -120 74 -144
84 -154 72 -16 -20 -1 -51 52 -109 73 -79 229 -166 367 -204 l67 -19 -59 -7
c-246 -32 -502 86 -841 385 -49 44 -95 80 -100 80 -6 0 -16 -5 -23 -12 -19
-19 44 -123 119 -198 84 -82 205 -171 317 -233 l87 -48 -90 6 c-300 20 -435
66 -674 227 -75 50 -137 92 -138 93 -2 1 17 37 42 81 45 77 82 179 87 239 2
24 -1 31 -17 33 -16 2 -32 -15 -71 -75z"/>
<path d="M10556 8421 c-16 -11 -33 -27 -38 -35 -20 -36 -87 -57 -194 -63 -82
-5 -111 -10 -130 -25 -32 -25 -30 -34 9 -58 37 -23 160 -28 246 -9 111 23 184
103 161 174 -13 41 -15 41 -54 16z"/>
<path d="M6025 8010 c-64 -71 -141 -151 -171 -177 -43 -38 -240 -171 -312
-212 -24 -14 -2 -41 33 -41 112 0 266 90 421 246 82 82 109 117 143 184 22 45
41 90 41 100 0 15 -18 30 -35 30 -2 0 -56 -58 -120 -130z"/>
<path d="M10305 8073 c3 -27 16 -64 28 -84 118 -194 253 -402 273 -422 26 -26
81 -53 90 -44 3 3 1 27 -4 54 -6 37 -40 100 -132 247 -67 109 -134 211 -148
227 -21 26 -89 69 -108 69 -3 0 -3 -21 1 -47z"/>
<path d="M2360 7626 c-5 -15 -10 -30 -9 -34 1 -8 457 -430 615 -568 60 -53
267 -222 459 -377 434 -347 564 -458 729 -617 276 -267 440 -479 587 -758 29
-56 64 -115 76 -130 l21 -27 -9 49 c-24 131 -59 205 -178 382 -120 179 -198
272 -391 465 -210 211 -296 285 -770 664 -380 304 -509 415 -864 743 -285 265
-253 240 -266 208z"/>
<path d="M10609 7470 c-48 -25 -158 -42 -228 -35 -46 5 -62 2 -88 -14 -40 -25
-40 -31 -7 -62 22 -21 37 -24 111 -28 183 -7 313 47 313 131 0 25 -4 28 -32
28 -18 -1 -49 -10 -69 -20z"/>
<path d="M7747 7235 c-245 -40 -390 -93 -446 -164 -46 -59 -103 -266 -82 -300
7 -11 22 -8 82 14 67 26 137 69 329 203 146 103 267 115 505 51 160 -42 240
-58 296 -59 81 0 85 39 7 70 -18 8 -52 30 -75 50 -133 115 -391 172 -616 135z"/>
<path d="M9524 6769 c-28 -8 -32 -14 -43 -66 -13 -66 -4 -86 31 -64 26 16 31
10 59 -82 37 -118 27 -234 -21 -265 -23 -14 -24 -11 -9 42 12 43 6 93 -15 121
-12 16 -16 17 -30 6 -9 -7 -16 -21 -16 -31 0 -10 -13 -47 -30 -82 -37 -79 -39
-120 -4 -155 22 -22 30 -24 72 -18 61 9 94 27 130 71 55 67 66 175 32 308 -22
87 -60 163 -99 199 -22 20 -31 23 -57 16z"/>
<path d="M8195 6599 c-27 -15 -99 -44 -159 -64 -95 -32 -127 -38 -250 -46 -78
-5 -164 -13 -192 -19 -97 -20 -197 -108 -159 -140 10 -9 21 -8 44 4 32 17 71
21 71 8 0 -18 47 -34 66 -24 14 7 29 6 54 -5 34 -14 89 -17 175 -10 22 2 61
-2 88 -8 38 -10 52 -9 74 2 20 10 34 11 59 3 25 -9 39 -8 56 1 13 7 46 16 73
21 113 17 131 21 153 36 17 11 20 18 11 28 -9 11 -8 14 4 14 24 0 91 37 116
64 21 22 22 25 5 34 -16 9 -16 12 9 42 56 66 32 82 -125 84 -114 1 -126 -1
-173 -25z"/>
<path d="M6685 6550 c3 -25 29 -94 60 -155 29 -60 60 -137 67 -170 16 -75 16
-348 0 -429 -7 -33 -10 -61 -8 -64 10 -9 57 81 71 135 19 74 19 236 0 349 -17
101 -52 180 -122 277 -27 36 -54 74 -61 84 -11 15 -12 12 -7 -27z"/>
<path d="M3796 5769 c16 -17 96 -76 177 -131 296 -200 478 -366 659 -604 58
-76 115 -147 126 -157 l21 -19 -14 47 c-22 72 -70 154 -145 247 -213 265 -605
572 -806 633 l-47 14 29 -30z"/>
<path d="M10968 4878 c-53 -9 -76 -27 -63 -49 10 -15 77 -29 168 -36 136 -10
142 -15 230 -236 48 -120 363 -463 517 -563 117 -76 267 -151 279 -139 5 6 17
26 25 46 l15 35 -102 54 c-162 85 -234 139 -367 276 -179 184 -250 279 -296
394 -46 117 -74 160 -126 197 -37 25 -50 28 -132 30 -50 1 -117 -3 -148 -9z"/>
<path d="M4886 4358 c4 -24 17 -83 30 -133 12 -49 46 -180 74 -290 45 -179 97
-325 115 -325 25 0 -81 488 -139 642 -21 58 -72 148 -82 148 -3 0 -1 -19 2
-42z"/>
<path d="M5234 4175 c-143 -85 -153 -448 -16 -578 l30 -29 -18 -31 c-57 -99
-12 -299 89 -390 52 -47 105 -63 173 -51 42 7 54 13 56 30 2 17 -7 23 -55 38
-78 24 -116 55 -149 121 -32 67 -44 179 -22 208 19 26 77 36 194 37 86 0 103
3 108 17 8 19 -1 26 -73 54 -77 28 -165 35 -221 15 -54 -19 -53 -20 -80 98
-37 155 -26 311 25 362 20 20 34 24 87 24 59 -1 173 -13 245 -26 49 -9 57 21
14 57 -52 43 -147 69 -254 69 -80 0 -97 -3 -133 -25z"/>
<path d="M10915 3786 c-69 -91 -94 -259 -75 -519 17 -232 63 -392 110 -380 25
7 26 47 5 248 -19 185 -19 375 1 516 9 63 17 125 18 139 2 38 -28 36 -59 -4z"/>
<path d="M5470 2983 c0 -67 33 -116 139 -206 50 -42 98 -92 108 -110 14 -25
18 -67 23 -197 3 -91 8 -170 13 -177 9 -15 -170 -191 -254 -250 -33 -23 -90
-53 -127 -68 -108 -43 -132 -75 -57 -75 91 0 244 91 367 217 42 44 80 91 83
105 7 26 7 26 58 -26 29 -28 69 -65 91 -81 34 -27 40 -37 47 -89 14 -108 103
-266 265 -472 173 -219 263 -345 333 -466 41 -70 80 -129 86 -132 7 -2 37 -7
69 -11 l56 -7 -91 153 c-121 203 -150 246 -294 429 -209 266 -269 364 -377
607 -10 21 -48 73 -86 116 -42 46 -72 89 -76 108 -3 17 -6 86 -6 154 0 190
-20 233 -158 346 -108 88 -152 130 -163 157 -5 13 -17 22 -29 22 -17 0 -20 -6
-20 -47z"/>
<path d="M5884 1819 c-23 -30 -65 -92 -94 -139 -69 -110 -172 -247 -253 -336
l-65 -70 31 -12 c31 -12 33 -12 85 45 76 84 182 225 246 326 52 84 102 204 94
228 -2 6 -22 -13 -44 -42z"/>
</g>
</svg>
